<?xml version="1.0" encoding="utf-8"?>
<!-- Svg Vector Icons : http://www.onlinewebfonts.com/icon -->
<!DOCTYPE svg PUBLIC "-//W3C//DTD SVG 1.1//EN" "http://www.w3.org/Graphics/SVG/1.1/DTD/svg11.dtd">
<svg version="1.1" xmlns="http://www.w3.org/2000/svg" xmlns:xlink="http://www.w3.org/1999/xlink" x="0px" y="0px" viewBox="0 0 256 256" enable-background="new 0 0 256 256" xml:space="preserve">
<metadata> Svg Vector Icons : http://www.onlinewebfonts.com/icon </metadata>
<g><g><path fill="#ffffff"  d="M140.9,36.7c0,1.3-1.6,2.2-3.6,2.2H14.7c-2,0-3.6-1-3.6-2.2l0,0c0-1.3,1.6-2.2,3.6-2.2h122.6C139.2,34.5,140.9,35.4,140.9,36.7L140.9,36.7z"/><path fill="#ffffff"  d="M15.9,245.8H10V15.4c0-3.1,1.3-5.5,2.9-5.5l0,0c1.6,0,2.9,2.5,2.9,5.5V245.8L15.9,245.8z"/><path fill="#ffffff"  d="M129.6,76.7c10.5,0,21.3-9.1,21.3-18.6s-10.2-19.3-20.8-19.3c-10.5,0-21,10-21,19.6C109.1,67.9,119.1,76.7,129.6,76.7z"/><path fill="#ffffff"  d="M180.4,132.2c0-9.3,0-19.2,0-28.8c0-9.4,0.8-8.5,0-14.4c-3.2-7.2-9.7-9.6-16.1-9.6c-13.8,0-18.3,0-29,0c-12.9,0-19.2,0-32.1,0c-6.4,0-10.6-0.3-15.4,2.9c-6.5,5.5-5.9,6-5.9,21.3c0,7.6,0,20.8,0,29.3c0,7.6-1.7,19.3,8.5,19.3c9.7,0,9.6-5.1,9.6-12.8c0-10.8,0-13.6,0-20c0-7-0.5-8.2,1.3-8.2c1.9,0,1.9,0.1,1.9,7.5c0,6.9-0.1,103.6-0.1,109.1c0,4.8,3.4,9.9,13.1,9.9c9.7,0,13.7-4.2,13.7-9c0-8.6,0-46.2,0-50.3c0-4.8,0.2-7.1,1.8-7.1c1.6,0,1.4,2.3,1.4,7.1c0,4.3,0,41.4,0,50.3c0,3,4.2,9.4,13.9,9.4c6.4,0,12.4-6.2,12.4-9.3c0-19.2,0.1-104.4,0.1-110.5c0-3.3-0.4-7.4,1.3-7.4c1.6,0,1.6,1.1,1.6,5.8c0,5.4,0,10.9,0,18.4c0,12.6,2.6,15.9,9.1,15.9C181.2,151.4,180.4,139.1,180.4,132.2z"/><path fill="#ffffff"  d="M246,240.6c0,3-2.4,5.5-5.5,5.5H17.1c-3,0-5.5-2.5-5.5-5.5l0,0c0-3,2.4-5.5,5.5-5.5h223.4C243.6,235.1,246,237.5,246,240.6L246,240.6z"/><path fill="#ffffff"  d="M39.9,118.7l0.2-0.2L39.9,118.7z"/><path fill="#ffffff"  d="M37.6,53h-23v5.4h23c2,0,3.5-1.2,3.5-2.7C41.1,54.2,39.5,53,37.6,53z"/><path fill="#ffffff"  d="M37.6,69.2h-23v5.4h23c2,0,3.5-1.2,3.5-2.7C41.1,70.4,39.5,69.2,37.6,69.2z"/><path fill="#ffffff"  d="M37.6,85.4h-23v5.4h23c2,0,3.5-1.2,3.5-2.7C41.1,86.6,39.5,85.4,37.6,85.4z"/><path fill="#ffffff"  d="M37.6,101.6h-23v5.4h23c2,0,3.5-1.2,3.5-2.7C41.1,102.8,39.5,101.6,37.6,101.6z"/><path fill="#ffffff"  d="M37.6,117.9h-23v5.4h23c2,0,3.5-1.2,3.5-2.7C41.1,119.1,39.5,117.9,37.6,117.9z"/><path fill="#ffffff"  d="M46,134.1H14.6v5.4H46c2.6,0,4.8-1.2,4.8-2.7C50.8,135.3,48.7,134.1,46,134.1z"/><path fill="#ffffff"  d="M37.6,150.3h-23v5.4h23c2,0,3.5-1.2,3.5-2.7C41.1,151.5,39.5,150.3,37.6,150.3z"/><path fill="#ffffff"  d="M37.6,166.5h-23v5.4h23c2,0,3.5-1.2,3.5-2.7C41.1,167.7,39.5,166.5,37.6,166.5z"/><path fill="#ffffff"  d="M37.6,182.7h-23v5.4h23c2,0,3.5-1.2,3.5-2.7C41.1,183.9,39.5,182.7,37.6,182.7z"/><path fill="#ffffff"  d="M37.6,198.9h-23v5.4h23c2,0,3.5-1.2,3.5-2.7C41.1,200.1,39.5,198.9,37.6,198.9z"/><path fill="#ffffff"  d="M37.6,215.2h-23v5.4h23c2,0,3.5-1.2,3.5-2.7C41.1,216.4,39.5,215.2,37.6,215.2z"/></g></g>
</svg>